<mxfile host="app.diagrams.net" modified="2021-08-09T04:04:38.543Z" agent="5.0 (Windows NT 10.0; Win64; x64) AppleWebKit/537.36 (KHTML, like Gecko) Chrome/92.0.4515.131 Safari/537.36" etag="pyvXrhlN9Yyz46d6Y5DE" version="14.9.5" type="github">
  <diagram id="cl5mVntGCe-EmmoI5MMx" name="Page-1">
    <mxGraphModel dx="1038" dy="547" grid="1" gridSize="10" guides="1" tooltips="1" connect="1" arrows="1" fold="1" page="1" pageScale="1" pageWidth="827" pageHeight="1169" math="0" shadow="0">
      <root>
        <mxCell id="0" />
        <mxCell id="1" parent="0" />
        <mxCell id="pA539vaEFsXzSZ0-_0Gr-1" value="" style="rounded=0;html=1;jettySize=auto;orthogonalLoop=1;fontSize=11;endArrow=block;endFill=0;endSize=8;strokeWidth=1;shadow=0;labelBackgroundColor=none;edgeStyle=orthogonalEdgeStyle;" edge="1" parent="1" source="pA539vaEFsXzSZ0-_0Gr-2" target="pA539vaEFsXzSZ0-_0Gr-5">
          <mxGeometry relative="1" as="geometry" />
        </mxCell>
        <mxCell id="pA539vaEFsXzSZ0-_0Gr-2" value="로그인 시도" style="rounded=1;whiteSpace=wrap;html=1;fontSize=12;glass=0;strokeWidth=1;shadow=0;" vertex="1" parent="1">
          <mxGeometry x="275" y="80" width="120" height="40" as="geometry" />
        </mxCell>
        <mxCell id="pA539vaEFsXzSZ0-_0Gr-3" value="Yes" style="rounded=0;html=1;jettySize=auto;orthogonalLoop=1;fontSize=11;endArrow=block;endFill=0;endSize=8;strokeWidth=1;shadow=0;labelBackgroundColor=none;edgeStyle=orthogonalEdgeStyle;" edge="1" parent="1" source="pA539vaEFsXzSZ0-_0Gr-5" target="pA539vaEFsXzSZ0-_0Gr-9">
          <mxGeometry y="20" relative="1" as="geometry">
            <mxPoint as="offset" />
          </mxGeometry>
        </mxCell>
        <mxCell id="pA539vaEFsXzSZ0-_0Gr-4" value="No" style="edgeStyle=orthogonalEdgeStyle;rounded=0;html=1;jettySize=auto;orthogonalLoop=1;fontSize=11;endArrow=block;endFill=0;endSize=8;strokeWidth=1;shadow=0;labelBackgroundColor=none;" edge="1" parent="1" source="pA539vaEFsXzSZ0-_0Gr-5" target="pA539vaEFsXzSZ0-_0Gr-6">
          <mxGeometry y="10" relative="1" as="geometry">
            <mxPoint as="offset" />
          </mxGeometry>
        </mxCell>
        <mxCell id="pA539vaEFsXzSZ0-_0Gr-5" value="로그인이 &lt;br&gt;되었는가?" style="rhombus;whiteSpace=wrap;html=1;shadow=0;fontFamily=Helvetica;fontSize=12;align=center;strokeWidth=1;spacing=6;spacingTop=-4;" vertex="1" parent="1">
          <mxGeometry x="260" y="170" width="150" height="80" as="geometry" />
        </mxCell>
        <mxCell id="pA539vaEFsXzSZ0-_0Gr-6" value="ID, PW 재입력" style="rounded=1;whiteSpace=wrap;html=1;fontSize=12;glass=0;strokeWidth=1;shadow=0;" vertex="1" parent="1">
          <mxGeometry x="460" y="190" width="120" height="40" as="geometry" />
        </mxCell>
        <mxCell id="pA539vaEFsXzSZ0-_0Gr-7" value="No" style="rounded=0;html=1;jettySize=auto;orthogonalLoop=1;fontSize=11;endArrow=block;endFill=0;endSize=8;strokeWidth=1;shadow=0;labelBackgroundColor=none;edgeStyle=orthogonalEdgeStyle;" edge="1" parent="1" source="pA539vaEFsXzSZ0-_0Gr-9" target="pA539vaEFsXzSZ0-_0Gr-10">
          <mxGeometry x="0.3333" y="20" relative="1" as="geometry">
            <mxPoint as="offset" />
          </mxGeometry>
        </mxCell>
        <mxCell id="pA539vaEFsXzSZ0-_0Gr-8" value="Yes" style="edgeStyle=orthogonalEdgeStyle;rounded=0;html=1;jettySize=auto;orthogonalLoop=1;fontSize=11;endArrow=block;endFill=0;endSize=8;strokeWidth=1;shadow=0;labelBackgroundColor=none;" edge="1" parent="1" source="pA539vaEFsXzSZ0-_0Gr-9" target="pA539vaEFsXzSZ0-_0Gr-12">
          <mxGeometry y="10" relative="1" as="geometry">
            <mxPoint as="offset" />
          </mxGeometry>
        </mxCell>
        <mxCell id="pA539vaEFsXzSZ0-_0Gr-9" value="재생이&lt;br&gt;되지 않은 video&lt;br&gt;가 존재하는가?" style="rhombus;whiteSpace=wrap;html=1;shadow=0;fontFamily=Helvetica;fontSize=12;align=center;strokeWidth=1;spacing=6;spacingTop=-4;" vertex="1" parent="1">
          <mxGeometry x="260" y="280" width="150" height="80" as="geometry" />
        </mxCell>
        <mxCell id="pA539vaEFsXzSZ0-_0Gr-10" value="출석부에서 미출석 video 추출" style="rounded=1;whiteSpace=wrap;html=1;fontSize=12;glass=0;strokeWidth=1;shadow=0;" vertex="1" parent="1">
          <mxGeometry x="460" y="300" width="120" height="40" as="geometry" />
        </mxCell>
        <mxCell id="pA539vaEFsXzSZ0-_0Gr-11" value="" style="edgeStyle=orthogonalEdgeStyle;rounded=0;orthogonalLoop=1;jettySize=auto;html=1;endArrow=block;endFill=0;" edge="1" parent="1" source="pA539vaEFsXzSZ0-_0Gr-12" target="pA539vaEFsXzSZ0-_0Gr-16">
          <mxGeometry relative="1" as="geometry" />
        </mxCell>
        <mxCell id="pA539vaEFsXzSZ0-_0Gr-12" value="video 재생" style="rounded=1;whiteSpace=wrap;html=1;fontSize=12;glass=0;strokeWidth=1;shadow=0;" vertex="1" parent="1">
          <mxGeometry x="275" y="400" width="120" height="40" as="geometry" />
        </mxCell>
        <mxCell id="pA539vaEFsXzSZ0-_0Gr-13" value="" style="endArrow=block;html=1;exitX=0.5;exitY=0;exitDx=0;exitDy=0;entryX=1;entryY=0.5;entryDx=0;entryDy=0;endFill=0;edgeStyle=orthogonalEdgeStyle;rounded=0;" edge="1" parent="1" source="pA539vaEFsXzSZ0-_0Gr-6" target="pA539vaEFsXzSZ0-_0Gr-2">
          <mxGeometry width="50" height="50" relative="1" as="geometry">
            <mxPoint x="430" y="210" as="sourcePoint" />
            <mxPoint x="440" y="90" as="targetPoint" />
          </mxGeometry>
        </mxCell>
        <mxCell id="pA539vaEFsXzSZ0-_0Gr-14" value="" style="endArrow=block;html=1;exitX=0.5;exitY=1;exitDx=0;exitDy=0;entryX=1;entryY=0.5;entryDx=0;entryDy=0;endFill=0;rounded=0;edgeStyle=orthogonalEdgeStyle;" edge="1" parent="1" source="pA539vaEFsXzSZ0-_0Gr-10" target="pA539vaEFsXzSZ0-_0Gr-12">
          <mxGeometry width="50" height="50" relative="1" as="geometry">
            <mxPoint x="580" y="380" as="sourcePoint" />
            <mxPoint x="470" y="420" as="targetPoint" />
          </mxGeometry>
        </mxCell>
        <mxCell id="pA539vaEFsXzSZ0-_0Gr-15" value="" style="endArrow=block;html=1;endFill=0;rounded=0;" edge="1" parent="1">
          <mxGeometry width="50" height="50" relative="1" as="geometry">
            <mxPoint x="335" y="440" as="sourcePoint" />
            <mxPoint x="335" y="480" as="targetPoint" />
            <Array as="points" />
          </mxGeometry>
        </mxCell>
        <mxCell id="pA539vaEFsXzSZ0-_0Gr-16" value="재생중&lt;br&gt;오류가 있는가?" style="rhombus;whiteSpace=wrap;html=1;shadow=0;fontFamily=Helvetica;fontSize=12;align=center;strokeWidth=1;spacing=6;spacingTop=-4;" vertex="1" parent="1">
          <mxGeometry x="260" y="480" width="150" height="80" as="geometry" />
        </mxCell>
        <mxCell id="pA539vaEFsXzSZ0-_0Gr-17" value="No" style="endArrow=block;html=1;endFill=0;exitX=0.5;exitY=1;exitDx=0;exitDy=0;rounded=0;edgeStyle=orthogonalEdgeStyle;" edge="1" parent="1" source="pA539vaEFsXzSZ0-_0Gr-16">
          <mxGeometry x="0.5" y="15" width="50" height="50" relative="1" as="geometry">
            <mxPoint x="340" y="580" as="sourcePoint" />
            <mxPoint x="335" y="600" as="targetPoint" />
            <mxPoint as="offset" />
          </mxGeometry>
        </mxCell>
        <mxCell id="pA539vaEFsXzSZ0-_0Gr-18" value="Yes" style="endArrow=block;html=1;endFill=0;exitX=1;exitY=0.5;exitDx=0;exitDy=0;rounded=0;edgeStyle=orthogonalEdgeStyle;" edge="1" parent="1" source="pA539vaEFsXzSZ0-_0Gr-16">
          <mxGeometry x="-0.2" y="10" width="50" height="50" relative="1" as="geometry">
            <mxPoint x="460" y="520" as="sourcePoint" />
            <mxPoint x="460" y="520" as="targetPoint" />
            <mxPoint as="offset" />
          </mxGeometry>
        </mxCell>
        <mxCell id="pA539vaEFsXzSZ0-_0Gr-19" value="" style="rounded=1;whiteSpace=wrap;html=1;fontSize=12;glass=0;strokeWidth=1;shadow=0;" vertex="1" parent="1">
          <mxGeometry x="460" y="500" width="120" height="40" as="geometry" />
        </mxCell>
        <mxCell id="pA539vaEFsXzSZ0-_0Gr-20" value="종료" style="rounded=1;whiteSpace=wrap;html=1;fontSize=12;glass=0;strokeWidth=1;shadow=0;" vertex="1" parent="1">
          <mxGeometry x="275" y="600" width="120" height="40" as="geometry" />
        </mxCell>
      </root>
    </mxGraphModel>
  </diagram>
</mxfile>
